<svg width="128" height="128" viewBox="0 0 128 128" fill="none" xmlns="http://www.w3.org/2000/svg">
  <defs>
    <linearGradient id="ring" x1="16" y1="108" x2="112" y2="20" gradientUnits="userSpaceOnUse">
      <stop stop-color="#F2B45A"/>
      <stop offset="0.45" stop-color="#D7A2C8"/>
      <stop offset="1" stop-color="#A9418A"/>
    </linearGradient>
    <linearGradient id="gold" x1="46" y1="32" x2="83" y2="93" gradientUnits="userSpaceOnUse">
      <stop stop-color="#FFF1BA"/>
      <stop offset="0.4" stop-color="#DDB66D"/>
      <stop offset="1" stop-color="#95682E"/>
    </linearGradient>
  </defs>
  <circle cx="64" cy="64" r="59" fill="#0B0B0D" stroke="url(#ring)" stroke-width="4"/>
  <path d="M64 27C60 34 59 40 62 44C65 48 70 47 72 42C73 39 72 35 70 31" stroke="url(#gold)" stroke-width="3.2" stroke-linecap="round"/>
  <path d="M50 50H78L74 78H54L50 50Z" stroke="url(#gold)" stroke-width="3" stroke-linejoin="round"/>
  <path d="M46 82H82C86 82 89 85 89 89V93H39V89C39 85 42 82 46 82Z" fill="url(#gold)"/>
  <path d="M43 96H85" stroke="#E7C683" stroke-width="2" stroke-linecap="round"/>
  <text x="64" y="108" text-anchor="middle" fill="#E4C47B" font-family="Georgia, serif" font-size="10" letter-spacing="2.2">MIRAGE</text>
</svg>
